<svg width="20" height="20" viewBox="0 0 20 20" fill="none" xmlns="http://www.w3.org/2000/svg">
<path d="M9.16671 1.66669C7.51853 1.66669 5.90737 2.15543 4.53696 3.07111C3.16655 3.98679 2.09845 5.28827 1.46771 6.81099C0.836985 8.33371 0.671957 10.0093 0.9935 11.6258C1.31504 13.2423 2.10872 14.7271 3.27415 15.8926C4.43959 17.058 5.92445 17.8517 7.54096 18.1732C9.15747 18.4948 10.833 18.3297 12.3557 17.699C13.8785 17.0683 15.1799 16.0002 16.0956 14.6298C17.0113 13.2594 17.5 11.6482 17.5 10C17.5 8.90567 17.2845 7.82204 16.8657 6.81099C16.4469 5.79995 15.8331 4.88129 15.0593 4.10746C14.2854 3.33364 13.3668 2.71981 12.3557 2.30102C11.3447 1.88224 10.2611 1.66669 9.16671 1.66669V1.66669ZM9.16671 16.6667C7.84817 16.6667 6.55924 16.2757 5.46291 15.5432C4.36658 14.8106 3.5121 13.7694 3.00751 12.5512C2.50293 11.3331 2.37091 9.99263 2.62814 8.69942C2.88538 7.40621 3.52032 6.21833 4.45267 5.28598C5.38502 4.35363 6.5729 3.71869 7.86611 3.46145C9.15932 3.20422 10.4998 3.33624 11.7179 3.84082C12.9361 4.34541 13.9773 5.19989 14.7098 6.29622C15.4424 7.39255 15.8334 8.68148 15.8334 10C15.8334 11.7681 15.131 13.4638 13.8808 14.7141C12.6305 15.9643 10.9348 16.6667 9.16671 16.6667V16.6667ZM11.75 10.525L10 9.51669V5.83335C10 5.61234 9.91225 5.40038 9.75597 5.2441C9.59969 5.08782 9.38772 5.00002 9.16671 5.00002C8.9457 5.00002 8.73374 5.08782 8.57746 5.2441C8.42118 5.40038 8.33338 5.61234 8.33338 5.83335V10C8.33338 10 8.33338 10.0667 8.33338 10.1C8.33831 10.1574 8.35238 10.2137 8.37504 10.2667C8.39221 10.3161 8.41455 10.3636 8.44171 10.4084C8.46451 10.4557 8.49246 10.5004 8.52504 10.5417L8.65838 10.65L8.73338 10.725L10.9 11.975C11.027 12.047 11.1707 12.0844 11.3167 12.0834C11.5012 12.0846 11.6809 12.0247 11.8277 11.9128C11.9745 11.8009 12.0799 11.6436 12.1276 11.4653C12.1753 11.287 12.1624 11.098 12.0911 10.9278C12.0197 10.7577 11.8939 10.616 11.7334 10.525H11.75Z" fill="#797979"/>
</svg>
